<svg version="1.1" xmlns="http://www.w3.org/2000/svg" xmlns:xlink="http://www.w3.org/1999/xlink" width="300.09761" height="122.8089" viewBox="532.99998,245.09375,300.09761,122.8089"><g fill="none" fill-rule="nonzero" stroke="none" stroke-width="none" stroke-linecap="butt" stroke-linejoin="miter" stroke-miterlimit="10" stroke-dasharray="" stroke-dashoffset="0" font-family="none" font-weight="none" font-size="none" text-anchor="none" style="mix-blend-mode: normal"><rect x="3638.72201" y="1672.42409" transform="scale(0.14648,0.14655)" width="2048" height="838" id="clip-2 1" fill="none" stroke-width="1"/><path d="M533,259.09969c3.79062,-0.40339 7.57434,-1.01202 11.36095,-1.475c8.27309,-1.01972 16.56132,-1.91278 24.86186,-2.6789c16.44536,-1.56073 32.95166,-2.39562 49.47056,-2.50224c6.84727,-0.00321 13.64561,0.32482 20.4835,0.54896c1.25713,0.07339 2.55513,0.0834 3.80171,0.2516c5.84048,0.54011 11.65884,1.10663 17.44673,2.07371c5.5897,0.93393 11.10498,2.23085 16.70581,3.12309c8.05151,1.24249 16.14771,2.17438 24.27026,2.79343c34.13965,2.73031 68.70557,2.38107 102.89941,0.8591c6.38965,-0.28666 12.77637,-0.64249 19.15723,-1.06735c3.09229,-0.20781 6.19482,-0.54137 9.28711,-0.68734c0.16553,0.26394 0.22559,0.4933 0.24023,0.80282c0.10254,2.20403 0.02051,4.45012 0.02051,6.65782l0.00146,12.60895c-0.00146,1.56637 0.22998,7.38077 -0.06738,8.58134c-0.03076,0.12179 -0.0835,0.23507 -0.14355,0.34455c0.14209,0.32213 0.18457,0.58812 0.19482,0.93839c0.14941,5.61669 0.17139,59.8604 -0.13184,60.5895c-0.0293,0.07137 -0.06445,0.13761 -0.10254,0.2043c-0.44092,0.0661 -0.85254,0.09511 -1.29932,0.08412c-6.43945,0.41182 -12.88477,0.74948 -19.33154,1.01313c-1.52051,0.0661 -4.65527,0.45754 -5.97656,0.19477c-0.36768,0.11871 -0.78516,0.03166 -1.16162,-0.00806c-0.67383,0.03561 -1.396,0.02711 -2.05811,0.14348c-12.479,0.43996 -24.96387,0.62139 -37.4502,0.54386c-3.97705,-0.05569 -8.10498,0.18363 -12.06006,-0.22511c-0.64453,0.1574 -1.59229,0.0255 -2.27051,0.01803c-1.14844,-0.0787 -2.28955,-0.00572 -3.44238,-0.1341c-20.80957,-0.79037 -45.59326,-2.17765 -65.60449,-8.10768c-3.09668,-0.91772 -6.21211,-1.93965 -9.16758,-3.25131c-2.51821,-1.11777 -4.94312,-2.45288 -7.49517,-3.49385c-4.23735,-1.69285 -8.62412,-2.98472 -13.10259,-3.85848c-10.56445,-2.13749 -21.37632,-2.62537 -32.12549,-2.62537c-25.05527,-0.00015 -50.00962,3.2324 -74.68465,7.34867c-0.39256,0.07811 -0.88185,0.12017 -1.25016,0.26292c-3.72004,0.44758 -7.62253,1.18489 -11.27643,2.02611v-7.30764z" id="Path 1" fill="#fafafa" stroke-width="0"/><path d="M620.21123,331.35986c10.74917,0 21.56104,0.48788 32.12549,2.62537c4.47847,0.87376 8.86523,2.16563 13.10259,3.85848c2.55205,1.04098 4.97695,2.37608 7.49517,3.49385c2.95547,1.31166 6.0709,2.33358 9.16758,3.25131c20.01123,5.93003 44.79492,7.31731 65.60449,8.10768c1.15283,0.12838 2.29395,0.0554 3.44238,0.1341l0.1333,0.2298c-1.35937,0.99965 -4.10889,2.09719 -5.70117,2.92171l0.07617,0.19946l-0.50684,0.13659c0.46143,0.11226 0.92139,0.19975 1.39014,0.27772c-1.56445,0.28197 -2.98975,-0.51221 -4.46777,-0.60893c-0.46875,-0.03063 -0.91699,0.34352 -1.50293,0.31157l-18.90967,-1.1122c-5.25732,-0.33282 -10.55713,-1.33643 -15.81445,-1.39534l-0.26221,-0.32022c-2.24268,-0.04147 -4.50586,-0.4294 -6.72217,-0.74684c-4.3623,-0.6038 -8.70117,-1.36808 -13.00781,-2.29138c-0.88916,-0.18993 -5.28955,-1.4311 -5.72314,-1.26696c-0.03662,0.01407 -0.07324,0.03122 -0.10986,0.0469c-1.22607,-0.7549 -3.10312,-1.0782 -4.48843,-1.52841c-1.82607,-0.59325 -3.64263,-1.24395 -5.44658,-1.9014c-2.73413,-0.99628 -5.25073,-2.45449 -7.8917,-3.66019c-1.77993,-0.8125 -3.68877,-1.39329 -5.41099,-2.32303c-0.60864,-0.32843 -1.31323,-0.02301 -1.95571,-0.20342c-0.51138,-0.14362 -1.00151,-0.45871 -1.54907,-0.606c-6.49365,-1.74649 -13.01367,-2.63417 -19.67871,-3.31008c-0.98291,-0.0998 -1.95806,-0.3444 -2.94141,-0.4209c-0.95566,-0.0743 -2.00317,0.02286 -2.97246,0.00147l-7.00195,-0.21426c-6.59707,-0.17513 -13.30386,-0.16649 -19.88613,0.35979c-0.23877,-0.11856 -0.22485,-0.14465 -0.3252,-0.3784l-0.52822,0.03122l0.21416,0.13146l0.01055,0.10464c-1.20381,0.30102 -4.80586,0.43483 -6.15923,0.45373c-0.02988,-0.119 -0.05449,-0.18906 -0.1314,-0.28534c-0.78911,0.2254 -1.57339,0.44391 -2.37686,0.61274c-0.10591,-0.08031 -0.17344,-0.1297 -0.22544,-0.25544c-0.01289,-0.03078 -0.02446,-0.06229 -0.03662,-0.09336c-2.35913,0.41299 -4.6522,0.44186 -7.01089,0.68851c-1.29199,0.13498 -4.52915,0.82481 -5.65693,0.61626l0.05552,-0.2827c-0.24082,-0.06155 -0.47007,-0.14128 -0.70312,-0.22731c0.2978,0.1788 0.32227,0.19624 0.45674,0.51514c-0.31318,-0.01803 -0.68364,-0.07035 -0.98013,0.04426c-0.68159,0.26336 -1.59492,0.317 -2.32485,0.40757c0.0022,-0.13336 -0.02373,-0.22481 -0.06724,-0.35041l-0.39946,-0.034l0.03311,0.15593c-0.08789,0.05994 -3.83833,0.72413 -4.36187,0.81881c-0.03955,-0.12442 -0.08232,-0.23522 -0.1418,-0.35144c-2.92939,0.86057 -6.12759,1.10517 -9.16787,1.26872c-0.22163,0.17704 -0.43682,0.30454 -0.69199,0.42794c-0.04526,-0.1936 -0.16831,-0.32169 -0.29004,-0.4722c-0.62139,0.03429 -0.78882,0.57127 -1.29448,0.63927c-0.47271,0.06346 -1.32642,-0.52027 -1.75811,-0.32139c-0.17402,0.08031 -0.31509,0.4489 -0.48984,0.5424c-0.31201,0.16722 -3.25181,0.37855 -3.80918,0.45461c-3.33779,0.45593 -6.64302,1.15001 -9.96737,1.66618l-0.24669,-0.25163c-0.5759,-0.02814 -3.94409,1.01078 -4.77735,1.20746c-0.51869,0.12252 -1.03644,-0.30293 -1.56787,-0.20254c-0.42292,0.07973 -1.18167,0.55984 -1.6276,0.74479c-0.49317,-0.14201 -0.93754,-0.19506 -1.44979,-0.21456v-2.21942c3.65389,-0.84122 7.55638,-1.57854 11.27643,-2.02611c0.05962,0.19624 0.02294,0.21441 -0.05877,0.39496c-0.32542,0.01128 -0.62622,-0.01627 -0.94811,-0.0573l0.00703,0.19316c0.35161,0.12677 0.68531,0.1341 1.0547,0.14025c0.56982,0.00953 1.68271,0.07474 2.11715,-0.34645c-0.18366,-0.36228 -0.55748,-0.42882 -0.92186,-0.58754c24.67503,-4.11627 49.62936,-7.34886 74.68464,-7.34871z" id="Path 1" fill="#400731" stroke-width="1"/><path d="M753.41943,352.81262c3.95508,0.40874 8.08301,0.16942 12.06006,0.22511c12.48633,0.07753 24.97119,-0.10391 37.4502,-0.54386c0.78955,0.03986 1.55273,0.03913 2.34229,-0.01729c-0.4043,0.68719 -3.62842,2.96421 -4.49121,3.44271c-0.1582,0.16986 -0.27832,0.27332 -0.48926,0.37401c-0.49951,-0.29326 -10.72266,0.20093 -12.00293,0.23566c-10.68311,0.25984 -21.37061,0.33898 -32.05664,0.23756c-3.22998,-0.01847 -6.46582,-0.18378 -9.69141,-0.17059c-0.46875,-0.07797 -0.92871,-0.16546 -1.39014,-0.27772l0.50684,-0.13659l-0.07617,-0.19946c1.59229,-0.82451 4.3418,-1.92206 5.70117,-2.92171l-0.1333,-0.2298c0.67822,0.00747 1.62598,0.13937 2.27051,-0.01803z" id="Path 1" fill="#400731" stroke-width="1"/><path d="M832.75684,351.06643c0.40869,0.66946 0.35449,2.30662 0.17139,3.07486c-0.0249,0.10479 -0.06738,0.20518 -0.11426,0.30205c-2.16064,0.47073 -6.84375,0.487 -9.28418,0.62696c-7.13232,0.40874 -14.3833,0.99144 -21.52295,1.01987c-0.4292,0.00176 -0.82471,0.0022 -1.22607,-0.17088c0.86279,-0.4785 4.08691,-2.75551 4.49121,-3.44271c-0.78955,0.05642 -1.55273,0.05716 -2.34229,0.01729c0.66211,-0.11636 1.38428,-0.10786 2.05811,-0.14348c0.37646,0.03972 0.79395,0.12677 1.16162,0.00806c1.32129,0.26277 4.45605,-0.12867 5.97656,-0.19477c6.44678,-0.26365 12.89209,-0.60131 19.33154,-1.01313c0.44678,0.01099 0.8584,-0.01803 1.29932,-0.08412z" id="Path 1" fill="#400731" stroke-width="1"/><path d="M544.27643,338.97145c0.36831,-0.14274 0.85759,-0.1848 1.25016,-0.26292c0.36438,0.15872 0.73819,0.22525 0.92186,0.58754c-0.43444,0.4212 -1.54733,0.35598 -2.11715,0.34645c-0.36939,-0.00616 -0.7031,-0.01348 -1.0547,-0.14025l-0.00703,-0.19316c0.32188,0.04104 0.62269,0.06859 0.94811,0.0573c0.08171,-0.18055 0.11839,-0.19873 0.05877,-0.39496z" id="Path 1" fill-opacity="0.13333" fill="#ff4020" stroke-width="1"/></g></svg>