<svg version="1.1" xmlns="http://www.w3.org/2000/svg" xmlns:xlink="http://www.w3.org/1999/xlink" width="300" height="183.67838" viewBox="501.40878,168.38352,300,183.67838"><defs><clipPath id="clip-1"><rect x="501.40878" y="-235.39843" transform="scale(1,-1.4956)" width="300" height="122.8125" id="clip-1" fill="none" stroke-width="1"/></clipPath><clipPath id="clip-2"><rect x="3423.0528" y="-1606.24786" transform="scale(0.14648,-0.21917)" width="2048" height="838" id="clip-2" fill="none" stroke-width="1"/></clipPath></defs><g fill="none" fill-rule="nonzero" stroke="none" stroke-width="none" stroke-linecap="butt" stroke-linejoin="miter" stroke-miterlimit="10" stroke-dasharray="" stroke-dashoffset="0" font-family="none" font-weight="none" font-size="none" text-anchor="none" style="mix-blend-mode: normal"><g><g clip-path="url(#clip-1)" id="Group 1"><g id="Group 1"><g clip-path="url(#clip-2)" id="Group 1"><path d="M501.40878,331.11277c3.79062,0.60331 7.57434,1.51357 11.36095,2.206c8.27309,1.52509 16.56132,2.86073 24.86186,4.00654c16.44536,2.33421 32.95166,3.58288 49.47056,3.74232c6.84727,0.0048 13.64561,-0.4858 20.4835,-0.82103c1.25713,-0.10976 2.55513,-0.12472 3.80171,-0.3763c5.84048,-0.80778 11.65884,-1.65507 17.44673,-3.10142c5.5897,-1.39678 11.10498,-3.33644 16.70581,-4.67087c8.05151,-1.85825 44.41354,-11.47355 52.53609,-12.3994c34.13965,-4.08344 40.38992,4.65712 74.58376,6.93337c6.38965,0.42872 12.82619,0.96422 19.20705,1.59964c3.09229,0.31081 6.19482,0.80966 9.28711,1.02798c0.16553,-0.39475 0.22559,-0.73778 0.24023,-1.20069c0.10254,-3.29632 0.02051,-6.65556 0.02051,-9.95739l0.00146,-18.85787c-0.00146,-2.34265 0.22998,-11.03863 -0.06738,-12.8342c-0.03076,-0.18214 -0.0835,-0.35156 -0.14355,-0.51531c0.14209,-0.48177 0.18457,-0.8796 0.19482,-1.40345c0.14941,-8.40028 0.17139,-89.52683 -0.13184,-90.61726c-0.0293,-0.10674 -0.06445,-0.20581 -0.10254,-0.30555c-0.44092,-0.09885 -0.85254,-0.14225 -1.29932,-0.1258c-6.43945,-0.61592 -12.88477,-1.12092 -19.33154,-1.51523c-1.52051,-0.09885 -4.65527,-0.6843 -5.97656,-0.29129c-0.36768,-0.17753 -0.78516,-0.04736 -1.16162,0.01206c-0.67383,-0.05325 -1.396,-0.04055 -2.05811,-0.21459c-12.479,-0.658 -24.96387,-0.92935 -37.4502,-0.81339c-3.97705,0.08329 -8.10498,-0.27464 -12.06006,0.33667c-0.64453,-0.2354 -1.59229,-0.03814 -2.27051,-0.02697c-1.14844,0.11771 -2.28955,0.00855 -3.44238,0.20055c-20.80957,1.18208 -45.59326,3.25689 -65.60449,12.12579c-3.09668,1.37252 -6.21211,2.90092 -9.16758,4.86263c-2.51821,1.67174 -4.94312,3.66851 -7.49517,5.22537c-4.23735,2.53181 -8.62412,4.46392 -13.10259,5.77072c-10.56445,3.19682 -21.37632,3.92649 -32.12549,3.92649c-25.05527,0.00022 -50.00962,-4.83437 -74.68465,-10.99062c-0.39256,-0.11682 -0.88185,-0.17973 -1.25016,-0.39322c-3.72004,-0.66939 -7.62253,-1.77212 -11.27643,-3.03024v10.92925z" id="Path 1" fill="#fafafa" stroke-width="0"/><path d="M512.68521,211.65708c0.36831,0.21348 0.85759,0.27638 1.25016,0.39322c0.36438,-0.23738 0.73819,-0.33688 0.92186,-0.87871c-0.43444,-0.62994 -1.54733,-0.53239 -2.11715,-0.51815c-0.36939,0.00921 -0.7031,0.02016 -1.0547,0.20976l-0.00703,0.2889c0.32188,-0.06138 0.62269,-0.10257 0.94811,-0.0857c0.08171,0.27003 0.11839,0.29722 0.05877,0.5907z" id="Path 1" fill-opacity="0.13333" fill="#ff4020" stroke-width="1"/></g></g></g></g></g></svg>